<svg width="32" height="32" viewBox="0 0 32 32" fill="none" xmlns="http://www.w3.org/2000/svg">
<g clip-path="url(#clip0_817_1401)">
<path opacity="0.2" d="M17.3175 17.6825C13.3275 11.0313 18.6475 4.3813 29.9537 5.0463C30.625 16.3525 23.9687 21.6738 17.3175 17.6825ZM2.0325 10.0325C1.5575 18.1088 6.30875 21.9075 11.0587 19.0588C13.9087 14.3088 10.1087 9.55755 2.0325 10.0325Z" fill="#2D746D"/>
<path d="M30.9538 4.9862C30.9395 4.74156 30.8358 4.51068 30.6626 4.3374C30.4893 4.16411 30.2584 4.06049 30.0138 4.0462C23.5438 3.6712 18.3487 5.6387 16.1162 9.3237C14.6412 11.7587 14.6437 14.7187 16.0962 17.5412C15.2704 18.5236 14.6662 19.6727 14.325 20.91L12.2912 18.875C13.2687 16.8337 13.2312 14.705 12.1662 12.9387C10.5112 10.2162 6.7025 8.74995 1.97375 9.0337C1.72911 9.04799 1.49823 9.15161 1.32494 9.3249C1.15166 9.49818 1.04804 9.72906 1.03375 9.9737C0.754999 14.7025 2.21625 18.5112 4.94 20.1612C5.84041 20.7108 6.87511 21.0011 7.93 21C8.95237 20.9874 9.95884 20.7451 10.875 20.2912L14 23.4162V27C14 27.2652 14.1054 27.5195 14.2929 27.7071C14.4804 27.8946 14.7348 28 15 28C15.2652 28 15.5196 27.8946 15.7071 27.7071C15.8946 27.5195 16 27.2652 16 27V23.3137C15.9955 21.7228 16.5369 20.1786 17.5338 18.9387C18.8199 19.6109 20.2464 19.9706 21.6975 19.9887C23.1005 19.9932 24.4774 19.61 25.6763 18.8812C29.3612 16.6512 31.3337 11.4562 30.9538 4.9862ZM10.7575 17.3425L7.70625 14.2925C7.51719 14.1128 7.26544 14.0142 7.00468 14.0175C6.74391 14.0209 6.49477 14.1259 6.31037 14.3103C6.12597 14.4947 6.0209 14.7439 6.01756 15.0046C6.01422 15.2654 6.11288 15.5171 6.2925 15.7062L9.34375 18.7575C8.1425 19.155 6.9775 19.0562 5.97625 18.45C4.05875 17.2887 2.97375 14.54 3 11C6.53875 10.9687 9.28875 12.0587 10.45 13.9762C11.0562 14.9775 11.155 16.1425 10.7575 17.3425ZM24.64 17.1725C22.965 18.1862 20.9963 18.2637 18.9963 17.4225L25.7075 10.71C25.8951 10.5225 26.0006 10.2681 26.0007 10.0029C26.0009 9.73765 25.8956 9.48322 25.7081 9.29558C25.5206 9.10794 25.2663 9.00246 25.0011 9.00234C24.7358 9.00222 24.4814 9.10748 24.2938 9.29495L17.5812 16C16.7362 14 16.8125 12.03 17.8312 10.3562C19.5737 7.4812 23.7062 5.8812 28.9975 6.00245C29.1175 11.2925 27.5175 15.43 24.64 17.1725Z" fill="#2D746D"/>
</g>
<defs>
<clipPath id="clip0_817_1401">
<rect width="32" height="32" fill="white"/>
</clipPath>
</defs>
</svg>
